<?xml version="1.0" standalone="no"?>
<!DOCTYPE svg PUBLIC "-//W3C//DTD SVG 20010904//EN"
 "http://www.w3.org/TR/2001/REC-SVG-20010904/DTD/svg10.dtd">
<svg version="1.0" xmlns="http://www.w3.org/2000/svg"
 width="9000.000000pt" height="9000.000000pt" viewBox="0 0 9000.000000 9000.000000"
 preserveAspectRatio="xMidYMid meet">

<g transform="translate(0.000000,9000.000000) scale(0.100000,-0.100000)"
fill="#000000" stroke="none">
<path d="M44015 87289 c-60 -4 -292 -12 -515 -19 -891 -24 -2138 -100 -2785
-169 -49 -6 -121 -13 -160 -16 -597 -51 -2170 -257 -2750 -360 -16 -3 -136
-24 -265 -46 -1480 -252 -3160 -637 -4565 -1047 -55 -16 -165 -48 -245 -72
-470 -137 -1254 -388 -1790 -573 -1167 -403 -2176 -801 -3380 -1332 -615 -271
-1663 -775 -2245 -1080 -1211 -633 -2135 -1165 -3220 -1852 -256 -162 -277
-176 -660 -428 -1689 -1113 -3396 -2431 -4925 -3804 -1378 -1237 -2713 -2603
-3906 -3996 -2272 -2654 -4195 -5555 -5743 -8665 -251 -503 -324 -656 -556
-1155 -320 -690 -693 -1572 -1040 -2460 -448 -1148 -941 -2639 -1294 -3915
-124 -452 -351 -1333 -351 -1367 0 -10 106 -13 495 -13 l495 0 10 23 c5 12 43
155 84 317 350 1385 839 2936 1354 4300 369 975 747 1877 1162 2770 70 151
153 327 183 390 30 63 79 167 110 231 69 144 477 960 487 974 4 6 49 91 100
190 277 536 658 1223 1025 1845 1453 2466 3191 4812 5140 6940 682 745 1496
1568 2240 2266 1464 1372 3126 2711 4785 3856 36 24 110 75 165 113 124 86
760 509 887 590 460 294 774 490 1168 727 547 328 1125 657 1690 960 47 25
110 59 140 75 796 428 1762 898 2680 1305 173 76 329 145 345 152 105 47 412
177 545 231 755 309 1104 444 1730 671 607 221 1354 472 1870 629 1559 476
2839 796 4403 1101 573 111 1384 244 2157 353 1097 155 2537 287 3725 341 127
6 334 15 460 21 363 16 2096 23 2585 10 1896 -51 3760 -227 5600 -527 343 -56
657 -110 835 -144 55 -10 163 -31 240 -45 1422 -267 2916 -639 4443 -1106 34
-10 90 -28 125 -38 326 -100 1109 -362 1507 -504 734 -263 1077 -394 1830
-700 548 -223 1334 -570 1985 -877 466 -220 1413 -695 1736 -872 35 -20 154
-84 264 -143 908 -489 1945 -1106 2851 -1696 189 -123 720 -478 854 -572 52
-36 142 -99 200 -139 4615 -3199 8608 -7410 11580 -12208 425 -685 905 -1516
1250 -2160 45 -85 103 -193 128 -240 110 -204 199 -378 455 -890 313 -625 366
-735 609 -1265 632 -1377 1263 -2991 1697 -4345 45 -140 100 -309 121 -375
184 -565 491 -1646 655 -2305 25 -102 50 -195 55 -207 l10 -23 501 0 c473 0
501 1 494 18 -3 9 -36 134 -71 277 -172 689 -380 1444 -575 2085 -124 405
-154 499 -328 1025 -396 1199 -804 2267 -1331 3490 -129 299 -389 874 -518
1145 -27 58 -91 193 -142 300 -242 511 -756 1513 -1058 2060 -1501 2722 -3221
5180 -5251 7505 -1197 1369 -2554 2730 -3936 3946 -2444 2149 -5163 4033
-8015 5554 -91 49 -192 103 -225 120 -629 335 -1886 946 -2440 1185 -60 27
-141 62 -180 80 -145 66 -580 252 -837 359 -1261 523 -2462 955 -3788 1364
-251 78 -346 106 -705 211 -1399 406 -3037 781 -4525 1035 -129 22 -248 43
-265 46 -588 104 -2125 306 -2750 360 -38 3 -110 10 -160 16 -647 69 -1896
145 -2770 169 -214 6 -460 15 -545 20 -179 12 -1271 11 -1435 -1z"/>
<path d="M41771 81179 c-919 -70 -1522 -664 -1651 -1624 -21 -157 -24 -477 -6
-674 38 -417 117 -731 256 -1016 191 -392 447 -644 810 -797 124 -52 213 -79
370 -110 104 -21 142 -23 405 -23 252 1 308 4 425 23 423 70 848 220 1101 388
19 14 46 43 60 67 21 37 24 54 24 142 -1 112 -22 200 -56 231 -41 37 -83 26
-296 -83 -444 -227 -779 -315 -1203 -316 -260 0 -424 32 -615 122 -345 163
-562 482 -666 981 -26 123 -49 283 -49 341 l0 46 103 7 c56 4 143 11 192 17
50 5 200 18 335 29 135 10 380 31 545 45 165 14 379 32 475 40 1063 88 1058
87 1119 121 121 65 136 128 106 421 -40 380 -161 737 -337 996 -87 128 -258
297 -383 379 -308 203 -639 280 -1064 247z m389 -468 c458 -93 752 -447 840
-1011 25 -160 26 -200 3 -200 -10 0 -97 -7 -193 -15 -96 -9 -281 -24 -410 -35
-129 -11 -370 -31 -535 -45 -375 -32 -715 -60 -955 -80 -102 -8 -205 -17 -229
-20 l-44 -5 6 157 c20 558 285 989 725 1182 213 94 540 123 792 72z"/>
<path d="M49992 80924 c-27 -19 -38 -45 -57 -134 -8 -36 -37 -166 -65 -290
-28 -124 -75 -334 -105 -467 -30 -134 -80 -354 -111 -490 -31 -137 -64 -284
-74 -328 -10 -44 -27 -120 -38 -170 -11 -49 -45 -200 -76 -335 -30 -135 -71
-317 -91 -405 -20 -88 -56 -250 -81 -360 -25 -110 -54 -238 -65 -285 -10 -47
-26 -114 -34 -150 -8 -36 -37 -166 -65 -290 -43 -189 -49 -229 -39 -252 25
-60 175 -116 336 -125 119 -7 145 3 163 64 9 34 53 226 186 818 82 363 135
599 155 685 10 47 26 114 34 150 8 36 37 166 65 290 28 124 80 355 116 515 36
159 70 296 77 304 7 8 75 61 151 118 338 251 621 400 848 444 29 5 100 10 158
10 132 0 231 -24 360 -87 81 -40 108 -60 185 -138 134 -135 199 -276 229 -494
32 -226 11 -443 -79 -842 -31 -135 -62 -274 -70 -310 -8 -36 -23 -103 -34
-150 -22 -96 -107 -471 -176 -780 -84 -375 -156 -694 -176 -780 -52 -228 -53
-237 -35 -266 54 -82 388 -150 459 -93 30 22 27 15 91 299 62 279 143 642 160
715 8 33 26 114 41 180 15 66 33 147 41 180 7 33 36 161 64 285 82 364 130
576 161 715 16 72 36 159 44 195 50 223 54 235 82 257 166 134 465 330 631
414 194 99 343 139 511 139 327 -1 605 -189 717 -486 47 -126 65 -243 65 -419
0 -197 -14 -303 -72 -565 -60 -269 -197 -878 -230 -1020 -23 -102 -37 -166
-124 -550 -182 -808 -177 -779 -152 -810 34 -43 162 -91 295 -110 82 -11 145
-2 173 27 13 12 33 79 60 198 22 99 49 218 60 265 11 47 28 126 39 175 11 50
28 128 39 175 20 84 71 313 156 690 24 107 67 296 95 420 28 124 57 254 65
290 8 36 26 115 40 175 63 272 79 403 79 660 0 255 -10 335 -65 505 -97 296
-329 550 -620 678 -445 195 -837 166 -1339 -100 -126 -66 -287 -165 -393 -240
-44 -32 -69 -44 -72 -36 -2 7 -9 44 -15 82 -24 148 -95 325 -185 461 -22 33
-78 99 -125 146 -168 169 -367 275 -651 345 -198 48 -464 35 -669 -33 -196
-65 -388 -161 -599 -299 -62 -41 -116 -73 -119 -70 -5 6 3 49 43 221 83 359
82 348 42 392 -59 66 -354 120 -415 77z"/>
<path d="M32595 79235 c-187 -39 -368 -113 -510 -208 -99 -66 -271 -248 -357
-377 -119 -179 -256 -455 -335 -675 -14 -38 -27 -72 -29 -74 -2 -2 -38 29 -81
69 -180 168 -378 272 -594 311 -104 19 -323 16 -433 -5 -119 -23 -281 -78
-391 -132 -312 -155 -548 -454 -750 -949 -32 -77 -58 -141 -60 -143 -2 -2 -28
58 -145 348 -45 111 -80 183 -96 198 -34 30 -76 28 -179 -8 -160 -55 -255
-120 -255 -174 0 -12 23 -78 51 -147 28 -68 80 -196 116 -284 36 -88 181 -443
323 -790 142 -346 283 -691 313 -765 61 -149 123 -302 193 -472 26 -62 66
-160 89 -218 24 -58 59 -143 78 -190 89 -217 134 -328 202 -495 168 -412 148
-380 236 -380 145 1 389 129 389 204 0 11 -16 60 -36 108 -20 48 -60 147 -89
218 -52 128 -92 226 -202 495 -31 74 -82 198 -113 275 -53 129 -86 210 -214
523 -25 61 -67 163 -92 225 -25 61 -75 184 -111 272 -36 88 -80 196 -98 240
-18 44 -49 121 -69 170 -20 50 -41 99 -47 110 -20 40 150 508 264 725 109 210
252 382 380 459 141 83 262 116 432 115 116 0 139 -3 210 -28 145 -50 258
-127 383 -261 154 -165 269 -373 450 -820 176 -432 232 -568 339 -830 25 -60
70 -171 100 -245 59 -144 69 -169 156 -380 30 -74 79 -191 107 -260 28 -69 67
-165 86 -213 43 -110 52 -124 86 -138 67 -27 308 57 396 139 44 41 42 78 -12
210 -24 59 -65 158 -90 220 -46 112 -93 226 -181 442 -26 63 -75 185 -110 270
-35 85 -84 206 -109 268 -25 61 -66 160 -90 220 -24 59 -92 224 -150 367 -59
143 -124 303 -146 355 -21 52 -61 149 -88 215 -27 66 -52 129 -56 141 -14 45
149 485 260 701 80 158 142 251 228 341 158 167 361 255 586 256 283 0 527
-156 738 -473 63 -97 171 -305 219 -426 18 -44 55 -136 83 -205 29 -69 80
-195 115 -280 79 -194 159 -388 225 -550 29 -69 85 -206 125 -305 40 -99 94
-232 120 -295 26 -63 72 -176 102 -250 171 -420 159 -400 234 -400 91 0 270
70 346 135 68 58 68 54 -47 335 -28 69 -85 206 -125 305 -81 200 -534 1306
-595 1455 -21 52 -62 151 -90 220 -147 356 -278 586 -450 787 -140 164 -334
300 -520 365 -181 63 -416 76 -615 33z"/>
<path d="M61585 76760 c-133 -12 -203 -64 -278 -210 -48 -94 -50 -144 -6 -186
l30 -29 228 -6 c268 -8 310 -12 502 -49 275 -55 508 -161 734 -336 378 -291
442 -651 200 -1129 -73 -145 -227 -405 -240 -405 -6 0 -44 20 -85 43 -41 24
-176 103 -300 174 -511 297 -835 428 -1180 479 -122 18 -361 18 -470 0 -207
-34 -407 -131 -560 -273 -145 -134 -299 -392 -357 -598 -26 -94 -28 -111 -27
-285 0 -170 3 -192 26 -266 95 -297 286 -535 593 -737 102 -67 298 -164 395
-195 164 -53 263 -66 490 -66 226 0 335 13 519 64 41 12 75 19 76 18 1 -2 -49
-91 -111 -198 -81 -139 -113 -205 -114 -228 -1 -77 212 -222 325 -222 66 0 63
-4 200 235 144 249 465 803 635 1095 62 107 152 263 200 345 48 83 162 280
254 439 260 446 326 591 387 841 32 130 32 355 0 474 -46 174 -113 300 -241
454 -172 208 -518 447 -826 572 -334 135 -730 209 -999 185z m-304 -2110 c218
-45 415 -128 724 -306 476 -274 535 -309 535 -316 0 -4 -31 -60 -68 -125 -237
-409 -333 -574 -359 -618 -16 -27 -41 -56 -55 -62 -13 -7 -96 -31 -182 -52
-532 -135 -871 -98 -1202 131 -201 139 -312 299 -350 507 -14 79 -15 105 -5
178 37 260 203 503 419 612 141 71 348 91 543 51z"/>
<path d="M22295 73285 c-367 -58 -734 -257 -1077 -584 -319 -303 -517 -675
-569 -1066 -17 -131 -6 -433 21 -555 99 -458 321 -857 722 -1300 282 -311 659
-572 973 -674 191 -61 253 -70 490 -70 193 0 232 3 315 22 369 87 713 287
1018 591 172 171 284 324 378 516 207 425 230 866 69 1350 -49 149 -196 443
-294 590 -175 262 -454 573 -661 739 -313 250 -640 403 -953 445 -103 14 -332
12 -432 -4z m330 -516 c317 -53 671 -278 994 -632 411 -450 622 -891 622
-1301 0 -343 -128 -620 -408 -887 -226 -214 -476 -351 -713 -388 -93 -15 -296
-13 -382 3 -308 60 -599 243 -928 583 -434 447 -670 923 -672 1353 -2 377 167
700 512 977 320 258 628 350 975 292z"/>
<path d="M44385 71904 c-44 -2 -215 -8 -380 -14 -1874 -66 -3773 -334 -5599
-791 -536 -134 -887 -231 -1416 -394 -1622 -499 -3201 -1155 -4715 -1958 -387
-205 -757 -413 -1180 -665 -2372 -1411 -4563 -3221 -6406 -5292 -1303 -1464
-2416 -3019 -3387 -4730 -289 -509 -726 -1361 -982 -1910 -170 -365 -530
-1197 -530 -1223 0 -4 137 -7 304 -7 231 0 306 3 313 13 6 6 41 84 78 172 380
903 879 1905 1400 2815 1763 3076 4135 5783 6955 7941 1639 1254 3410 2310
5295 3156 705 317 1538 645 2270 893 205 70 732 241 795 258 19 6 87 26 150
45 1182 361 2557 664 3835 847 1465 209 2778 290 4315 268 1253 -18 2669 -144
3855 -344 83 -14 202 -34 266 -44 64 -11 235 -42 380 -69 1806 -341 3627 -888
5314 -1596 260 -110 578 -248 690 -300 44 -21 98 -45 120 -55 190 -83 926
-443 1215 -595 1169 -613 2283 -1304 3345 -2075 1900 -1380 3670 -3068 5141
-4905 1197 -1495 2210 -3076 3052 -4765 97 -195 196 -395 219 -445 23 -49 67
-144 98 -210 89 -188 219 -478 336 -750 l107 -250 298 -3 c164 -1 304 0 311 2
16 7 -158 423 -417 996 -1624 3592 -4033 6802 -7070 9421 -2067 1782 -4510
3307 -7010 4374 -74 32 -180 77 -235 100 -899 384 -2229 843 -3245 1120 -452
124 -1081 278 -1445 355 -336 71 -462 97 -715 145 -1327 251 -2571 391 -4030
456 -226 10 -1530 20 -1695 13z"/>
<path d="M69139 71159 c-435 -42 -935 -305 -1378 -724 -846 -799 -1117 -1597
-775 -2277 107 -213 315 -448 527 -596 81 -56 261 -144 362 -177 200 -64 492
-105 754 -105 78 0 141 -2 141 -4 0 -2 -90 -92 -199 -201 -110 -109 -205 -210
-212 -226 -10 -24 -9 -37 6 -76 21 -54 146 -191 214 -235 82 -52 78 -54 330
194 620 610 3948 3926 3967 3953 8 11 14 31 14 45 0 95 -239 330 -335 330 -25
0 -91 -61 -505 -473 -261 -260 -644 -640 -850 -845 l-375 -371 -2 87 c-15 595
-142 937 -464 1248 -289 278 -582 420 -936 454 -120 11 -159 11 -284 -1z m449
-514 c158 -30 299 -107 438 -239 193 -181 295 -392 339 -696 23 -156 30 -464
16 -646 l-11 -149 -612 -606 c-601 -598 -611 -607 -657 -613 -104 -13 -529
-18 -649 -7 -142 13 -316 49 -416 86 -319 117 -574 387 -652 690 -13 51 -18
108 -18 210 1 154 19 252 76 408 163 448 689 1047 1178 1341 231 139 409 202
675 240 50 7 210 -3 293 -19z"/>
<path d="M14233 67398 c-118 -112 -208 -285 -189 -362 5 -19 226 -171 994
-681 543 -362 991 -660 995 -665 6 -5 -1509 -2297 -1543 -2334 -5 -5 -47 17
-97 50 -48 32 -485 322 -969 645 -485 323 -896 595 -914 604 -19 10 -42 14
-57 10 -34 -8 -118 -88 -165 -158 -94 -138 -121 -242 -75 -284 12 -12 839
-564 1837 -1229 998 -664 2024 -1346 2278 -1516 293 -195 473 -308 488 -308
55 0 113 51 193 169 87 127 116 236 74 273 -15 13 -403 272 -2046 1366 -106
71 -154 108 -148 116 4 6 354 531 776 1166 422 635 769 1157 770 1158 2 2 495
-323 1096 -723 602 -400 1104 -731 1118 -736 53 -21 125 35 210 160 71 107
105 191 96 239 -6 32 -88 88 -1593 1089 -2537 1688 -2976 1979 -2999 1992 -43
22 -72 13 -130 -41z"/>
<path d="M74750 63650 c-566 -48 -1256 -378 -1748 -835 -215 -199 -413 -500
-490 -745 -61 -193 -67 -237 -67 -470 0 -187 3 -229 23 -325 84 -397 305 -820
616 -1179 186 -215 304 -330 451 -439 162 -121 222 -132 351 -67 149 76 207
158 159 227 -8 11 -83 74 -167 139 -267 205 -511 467 -657 701 -199 322 -291
596 -291 867 0 247 80 474 240 681 52 68 206 220 295 291 123 98 397 275 409
264 5 -6 219 -385 733 -1300 577 -1027 592 -1053 621 -1083 34 -36 118 -77
157 -77 105 0 378 154 625 353 683 549 836 1303 420 2059 -249 452 -596 748
-1025 876 -184 55 -447 80 -655 62z m436 -505 c180 -31 356 -106 499 -212 256
-191 456 -547 496 -885 27 -235 -47 -493 -201 -699 -105 -140 -308 -313 -497
-422 l-63 -36 -14 22 c-7 12 -107 189 -221 392 -114 204 -372 662 -572 1018
-226 400 -362 652 -356 658 15 15 202 89 293 115 209 61 455 80 636 49z"/>
<path d="M80110 54269 c-1086 -55 -2149 -286 -3097 -673 -151 -62 -186 -77
-318 -136 -1183 -526 -2281 -1324 -3171 -2305 -716 -791 -1309 -1728 -1722
-2725 -699 -1688 -891 -3582 -546 -5395 161 -845 438 -1663 829 -2445 128
-256 210 -404 398 -720 51 -87 292 -447 376 -565 669 -930 1513 -1743 2461
-2369 308 -203 294 -195 540 -335 1047 -600 2201 -992 3400 -1156 708 -97
1489 -112 2190 -44 567 55 1175 167 1635 300 39 12 102 30 140 41 226 64 608
197 870 303 2488 1007 4443 3037 5354 5560 276 763 440 1500 523 2350 17 175
21 305 25 775 5 618 -5 834 -62 1283 -187 1469 -700 2836 -1532 4080 -343 513
-707 953 -1177 1422 -750 749 -1551 1322 -2498 1789 -504 249 -948 424 -1474
581 -1000 300 -2118 436 -3144 384z m920 -979 c522 -29 1062 -109 1565 -234
125 -31 193 -50 425 -116 107 -31 384 -127 555 -192 1436 -547 2694 -1476
3659 -2702 526 -667 952 -1425 1260 -2241 598 -1581 703 -3342 300 -5005 -43
-177 -53 -214 -110 -410 -124 -422 -331 -944 -545 -1371 -80 -161 -281 -525
-344 -624 -18 -27 -49 -77 -70 -110 -330 -523 -731 -1022 -1185 -1475 -1332
-1330 -3054 -2175 -4915 -2410 -895 -114 -1809 -83 -2715 90 -299 57 -703 162
-1010 263 -1251 411 -2388 1110 -3331 2047 -679 675 -1194 1387 -1619 2240
-94 187 -250 529 -250 546 0 3 -7 20 -15 37 -20 45 -100 253 -142 372 -387
1098 -543 2269 -458 3440 109 1492 595 2897 1433 4135 727 1076 1710 1985
2842 2630 250 143 662 347 883 437 31 12 85 35 120 49 821 336 1768 550 2672
603 206 12 783 12 995 1z"/>
<path d="M61020 54189 c-858 -25 -1900 -104 -2700 -205 -283 -35 -320 -41
-336 -55 -12 -10 -14 -1244 -12 -9278 l3 -9266 487 -3 488 -2 2 8847 3 8848
65 7 c170 18 791 69 1010 83 1291 82 2385 82 3475 0 2282 -172 3959 -692 4950
-1536 138 -117 361 -351 456 -479 308 -413 474 -831 551 -1385 29 -214 32
-666 4 -910 -63 -571 -231 -968 -553 -1312 -372 -396 -1010 -715 -1863 -931
-508 -129 -965 -213 -1830 -337 -1072 -153 -1392 -208 -1800 -306 -770 -187
-1298 -500 -1586 -941 -433 -662 -315 -1431 379 -2468 562 -839 1516 -1890
3027 -3330 764 -729 1650 -1529 3155 -2850 753 -661 1093 -963 1288 -1144
l148 -138 337 342 c185 189 338 346 340 350 6 16 -468 444 -1393 1255 -627
550 -1394 1228 -1650 1460 -709 641 -1161 1058 -1640 1515 -1962 1871 -3025
3167 -3233 3939 -34 126 -38 315 -8 401 86 252 364 452 826 593 419 129 782
193 2190 392 303 43 780 124 1069 181 1855 368 2919 1002 3444 2050 236 471
347 1026 347 1732 0 589 -88 1084 -278 1557 -317 793 -894 1451 -1722 1962
-304 188 -739 403 -1065 527 -38 15 -81 32 -95 38 -35 15 -264 97 -330 118
-367 118 -529 165 -835 240 -1043 255 -2196 397 -3560 440 -349 11 -1170 11
-1555 -1z"/>
<path d="M47889 54116 c-3 -3 -90 -10 -195 -16 -1466 -83 -2829 -463 -4088
-1139 -1573 -844 -2872 -2105 -3748 -3636 -117 -205 -337 -636 -409 -802 -24
-57 -50 -105 -57 -108 -13 -5 -2124 -8 -2127 -3 0 2 -16 37 -35 78 -63 141
-222 455 -323 635 -1270 2279 -3457 3941 -6032 4584 -777 194 -1541 286 -2370
286 -1060 0 -2043 -154 -3030 -475 -1252 -408 -2375 -1048 -3383 -1928 -216
-189 -658 -631 -843 -843 -771 -884 -1339 -1833 -1733 -2894 -92 -246 -161
-463 -152 -472 16 -16 4933 -5 11921 27 1155 5 2843 12 3750 16 l1651 7 67
-209 c142 -445 231 -820 302 -1269 102 -659 122 -1411 54 -2085 -162 -1622
-800 -3151 -1844 -4425 -371 -453 -867 -938 -1336 -1307 -1236 -972 -2725
-1593 -4299 -1792 -431 -55 -547 -61 -1125 -61 -578 0 -694 6 -1125 61 -1804
228 -3495 1011 -4811 2227 -1015 938 -1742 2024 -2218 3312 l-67 180 -477 3
c-488 2 -501 1 -468 -33 5 -6 21 -48 36 -94 210 -675 544 -1400 933 -2031 644
-1045 1512 -1975 2522 -2702 1260 -907 2733 -1500 4270 -1717 852 -120 1656
-134 2490 -41 1675 186 3254 793 4610 1773 1056 763 1966 1765 2612 2872 1106
1898 1491 4087 1097 6245 -59 326 -188 852 -254 1039 -8 24 -13 47 -9 50 11
11 1394 14 1394 3 0 -5 -9 -38 -19 -73 -142 -470 -267 -1116 -320 -1659 -22
-219 -51 -729 -51 -892 0 -185 31 -705 56 -938 159 -1499 664 -2889 1505
-4145 223 -333 475 -660 755 -980 179 -205 584 -613 784 -790 1302 -1154 2823
-1912 4530 -2259 739 -150 1684 -225 2343 -186 742 45 1295 123 1902 270 3095
748 5625 2982 6694 5914 74 202 162 476 157 484 -2 4 -216 6 -474 4 l-470 -2
-16 -43 c-145 -400 -253 -660 -401 -962 -617 -1254 -1554 -2349 -2719 -3178
-1104 -785 -2421 -1313 -3771 -1511 -465 -68 -792 -91 -1320 -91 -634 1 -1108
45 -1685 156 -2283 442 -4293 1772 -5568 3686 -821 1231 -1289 2635 -1373
4116 -15 268 -7 909 15 1147 58 624 178 1241 341 1750 21 63 42 131 47 151
l10 37 491 6 c506 6 1274 9 6007 26 3430 12 7127 28 8711 36 890 5 1208 4
1213 -5 10 -15 932 -16 941 -1 4 6 -26 106 -65 223 -294 868 -725 1701 -1271
2452 -550 759 -1243 1459 -2009 2030 -780 581 -1672 1053 -2595 1372 -1010
349 -2051 526 -3180 540 -187 2 -343 2 -346 -1z m701 -896 c394 -18 717 -52
1080 -111 1462 -239 2889 -873 4027 -1791 853 -687 1545 -1494 2077 -2421 82
-143 216 -398 216 -411 0 -5 -1676 -15 -3675 -21 -951 -3 -2135 -8 -2630 -11
-1037 -6 -8244 -34 -8868 -34 l-417 0 56 113 c262 523 639 1097 1031 1567 186
223 319 368 552 600 1114 1109 2492 1883 4036 2269 798 199 1700 289 2515 251z
m-19365 -134 c1234 -110 2324 -426 3385 -982 613 -321 1146 -688 1690 -1163
191 -167 584 -557 752 -748 345 -391 659 -819 921 -1253 106 -178 287 -509
287 -527 0 -11 -1063 -18 -5490 -33 -1521 -6 -3753 -14 -4960 -20 -1207 -5
-2849 -12 -3649 -16 -818 -3 -1452 -3 -1450 2 36 85 222 422 337 614 578 963
1414 1863 2352 2531 1356 967 2948 1518 4660 1613 176 10 995 -3 1165 -18z"/>
<path d="M9160 53997 c-3 -3 -84 -10 -180 -16 -1692 -108 -3235 -605 -4638
-1494 -570 -360 -1081 -769 -1581 -1261 -358 -354 -621 -654 -917 -1048 -977
-1302 -1577 -2790 -1773 -4404 -37 -300 -71 -818 -71 -1079 0 -383 49 -975
116 -1410 414 -2677 2045 -5076 4424 -6507 582 -350 1222 -648 1849 -862 1721
-587 3574 -686 5341 -285 1334 303 2581 879 3665 1694 376 283 677 546 1025
894 910 914 1593 1953 2065 3141 65 164 245 679 245 701 0 5 -214 9 -475 9
-261 0 -475 -2 -475 -3 0 -9 -135 -372 -171 -462 -351 -864 -839 -1652 -1476
-2384 -170 -195 -579 -604 -781 -780 -731 -637 -1509 -1122 -2382 -1486 -846
-353 -1648 -551 -2620 -647 -202 -20 -282 -22 -775 -23 -589 0 -698 6 -1135
61 -2342 294 -4459 1517 -5867 3389 -636 847 -1111 1823 -1383 2845 -270 1014
-342 2102 -210 3150 135 1066 485 2113 1020 3050 830 1455 2115 2664 3630
3414 1026 509 2068 795 3265 896 204 18 891 24 1130 11 1348 -74 2589 -424
3770 -1064 961 -521 1882 -1290 2571 -2147 576 -716 1023 -1502 1330 -2335
l62 -170 476 -3 c262 -1 476 2 476 6 0 16 -127 385 -183 532 -106 278 -201
495 -337 775 -776 1590 -2023 2951 -3565 3890 -758 462 -1601 827 -2445 1059
-659 181 -1230 276 -2010 337 -146 12 -1001 25 -1010 16z"/>
<path d="M4262 34452 c-463 -2 -493 -3 -488 -20 2 -9 21 -80 41 -157 63 -242
101 -384 153 -575 59 -212 225 -785 282 -970 21 -69 50 -165 65 -215 187 -618
510 -1565 793 -2325 707 -1896 1573 -3781 2567 -5585 1861 -3378 4211 -6529
6910 -9264 1032 -1045 1924 -1870 3015 -2787 938 -788 2140 -1703 3124 -2379
50 -34 138 -95 196 -135 529 -365 1416 -933 2061 -1321 270 -162 371 -221 734
-432 117 -67 755 -423 905 -504 555 -300 1466 -765 1885 -961 94 -44 218 -103
277 -131 1156 -550 2768 -1208 3998 -1633 1477 -510 2733 -876 4230 -1233 837
-200 2027 -437 2835 -565 66 -11 192 -31 280 -45 625 -99 1416 -203 2085 -274
1102 -116 1913 -172 3250 -223 432 -17 2117 -17 2555 0 984 37 1608 73 2365
137 965 82 2064 215 2975 360 88 14 214 34 280 45 352 56 886 152 1335 241
434 86 809 166 1245 265 443 101 1174 283 1600 399 387 106 921 258 1120 320
61 18 162 49 225 69 1760 531 3782 1311 5515 2126 364 171 526 250 915 444
2126 1063 4046 2227 5955 3610 2284 1655 4430 3566 6351 5656 2399 2610 4489
5553 6151 8660 245 457 653 1259 801 1570 22 47 86 182 142 300 842 1773 1623
3785 2182 5615 217 713 547 1893 534 1913 -2 4 -229 6 -503 4 l-499 -2 -39
-148 c-58 -221 -287 -1026 -366 -1287 -284 -933 -588 -1824 -917 -2690 -179
-470 -203 -529 -409 -1035 -241 -591 -598 -1396 -911 -2055 -113 -239 -594
-1198 -728 -1450 -2346 -4447 -5431 -8380 -9189 -11716 -3133 -2780 -6715
-5095 -10525 -6800 -85 -39 -164 -74 -175 -79 -79 -37 -496 -216 -780 -335
-2465 -1035 -5210 -1872 -7820 -2385 -82 -17 -195 -39 -250 -50 -1492 -295
-3340 -534 -5030 -650 -1582 -108 -3368 -122 -4970 -40 -5064 262 -9964 1427
-14565 3463 -994 440 -1879 875 -2965 1457 -607 326 -1494 843 -2171 1266
-2994 1869 -5723 4100 -8154 6664 -1761 1858 -3365 3901 -4761 6065 -598 926
-1204 1960 -1748 2980 -176 330 -659 1287 -793 1570 -921 1949 -1587 3655
-2197 5625 -122 393 -384 1310 -451 1577 -8 29 -18 54 -24 55 -6 2 -233 2
-504 0z"/>
<path d="M19791 34452 c-10 -3 180 -461 357 -857 1140 -2559 2698 -4960 4587
-7070 595 -664 1416 -1487 2075 -2081 1266 -1139 2609 -2139 4060 -3024 284
-173 309 -188 550 -328 1351 -783 2848 -1479 4340 -2019 445 -161 1069 -367
1445 -478 435 -127 680 -195 1030 -285 1809 -465 3681 -743 5550 -825 1083
-47 1401 -47 2475 0 298 13 490 25 855 51 44 3 204 16 355 30 3632 323 7152
1371 10360 3085 3041 1625 5752 3815 7986 6454 1670 1973 3056 4182 4106 6545
131 294 340 792 335 797 -2 2 -141 4 -308 4 -238 0 -306 -3 -312 -13 -4 -7
-42 -96 -86 -198 -891 -2097 -2085 -4121 -3502 -5936 -569 -730 -1258 -1523
-1840 -2119 -92 -93 -177 -183 -190 -198 -42 -49 -668 -656 -879 -852 -884
-818 -1843 -1594 -2820 -2280 -200 -140 -817 -553 -1012 -676 -521 -331 -1109
-676 -1638 -961 -391 -211 -927 -482 -1290 -653 -1472 -693 -3000 -1248 -4560
-1658 -1647 -434 -3311 -704 -5025 -817 -2564 -168 -5140 29 -7620 585 -3590
805 -6968 2346 -9940 4534 -3384 2491 -6141 5754 -8029 9501 -259 513 -536
1111 -747 1612 l-54 127 -303 3 c-166 2 -306 2 -311 0z"/>
<path d="M73430 29941 c-142 -46 -373 -237 -517 -426 -278 -368 -416 -783
-383 -1155 23 -267 125 -485 313 -666 167 -163 351 -263 597 -324 294 -74 657
3 952 201 110 74 336 261 568 469 249 223 365 315 485 382 258 144 463 157
700 44 425 -203 520 -612 265 -1141 -146 -303 -328 -497 -697 -741 -94 -62
-179 -124 -187 -136 -9 -12 -16 -38 -16 -57 0 -59 87 -127 242 -187 61 -24 88
-29 163 -29 86 0 93 2 160 38 221 121 479 384 660 672 155 247 276 574 306
830 18 151 7 367 -26 490 -31 120 -115 294 -185 387 -66 87 -191 203 -282 264
-170 112 -394 201 -567 225 -163 23 -382 -7 -546 -75 -224 -92 -392 -216 -830
-611 -317 -286 -443 -380 -609 -455 -231 -103 -463 -91 -680 36 -335 197 -399
570 -174 1019 119 236 315 435 628 638 100 64 109 106 40 174 -82 80 -304 158
-380 134z"/>
<path d="M16795 29113 c-111 -6 -409 -44 -525 -68 -414 -84 -831 -236 -1260
-458 -449 -232 -792 -477 -1076 -768 -330 -340 -525 -670 -624 -1057 -65 -259
-67 -626 -5 -899 78 -341 254 -711 483 -1015 267 -355 667 -684 1030 -849 220
-99 279 -99 485 8 112 58 167 108 167 151 0 52 -55 93 -259 195 -228 114 -362
194 -507 303 -283 211 -445 394 -613 690 -257 453 -314 917 -165 1346 161 464
569 899 1177 1255 1072 627 2108 779 2853 418 374 -181 661 -489 855 -917 115
-256 169 -517 169 -818 0 -128 -21 -361 -39 -440 -6 -25 -11 -78 -11 -118 0
-69 2 -76 31 -104 29 -30 32 -30 104 -26 65 4 88 12 182 58 151 76 202 127
238 240 59 189 57 535 -5 831 -52 251 -111 429 -216 644 -457 945 -1361 1456
-2469 1398z"/>
<path d="M70505 24479 c-201 -23 -450 -108 -638 -217 -161 -93 -376 -285 -522
-467 -641 -798 -553 -1712 241 -2486 421 -409 1029 -762 1519 -879 203 -49
332 -63 532 -57 213 5 322 23 498 82 458 153 855 489 1192 1007 73 112 207
370 267 513 97 229 164 479 151 562 -8 55 -52 113 -125 167 -122 90 -212 116
-263 76 -35 -28 -39 -38 -88 -225 -22 -82 -49 -179 -60 -215 -188 -579 -577
-1085 -1000 -1302 -96 -49 -242 -99 -349 -119 -85 -17 -334 -16 -435 0 -187
30 -438 126 -670 256 -127 71 -305 186 -305 197 0 4 195 252 433 550 1481
1856 1377 1719 1377 1824 0 90 -55 154 -235 277 -326 221 -635 362 -935 426
-183 39 -408 51 -585 30z m370 -519 c143 -26 291 -79 450 -160 133 -68 306
-180 303 -197 -2 -6 -194 -252 -428 -545 -1232 -1546 -1129 -1419 -1151 -1407
-12 6 -75 63 -141 127 -228 222 -362 433 -436 692 -25 89 -27 106 -26 290 1
182 2 201 28 284 67 222 184 405 377 591 110 106 195 168 304 224 123 63 210
89 390 115 48 7 264 -2 330 -14z"/>
<path d="M22024 24333 c-18 -10 -233 -187 -479 -393 -246 -206 -745 -624
-1109 -928 -363 -305 -708 -594 -766 -642 -103 -86 -930 -779 -1945 -1628
-280 -235 -520 -437 -532 -449 -52 -50 -18 -135 107 -266 126 -133 207 -171
272 -129 15 9 134 107 265 217 131 110 530 445 888 744 357 299 686 575 731
612 44 38 161 136 260 218 l179 151 250 0 c386 0 658 -32 877 -104 344 -113
585 -337 684 -639 24 -72 28 -98 28 -217 1 -155 -17 -232 -86 -377 -108 -228
-279 -420 -653 -733 -77 -64 -381 -318 -675 -565 -294 -246 -666 -558 -826
-692 -348 -290 -351 -293 -360 -327 -17 -70 168 -296 290 -352 56 -25 60 -26
91 -11 27 13 457 369 1455 1207 58 48 211 177 340 285 412 345 559 488 710
690 112 150 199 323 246 490 36 132 46 366 19 497 -55 274 -177 489 -415 729
-87 88 -154 146 -220 189 -106 69 -276 154 -390 193 -220 77 -512 125 -773
128 -59 1 -107 5 -105 10 3 7 162 142 858 724 854 715 1099 920 1134 953 36
33 38 39 34 82 -6 58 -40 109 -142 212 -120 123 -183 154 -242 121z"/>
<path d="M66105 20181 c-111 -51 -310 -232 -357 -326 -38 -73 -27 64 -158
-1922 -35 -531 -43 -643 -50 -643 -3 0 -130 134 -281 298 -152 163 -367 396
-479 517 -452 488 -1449 1564 -1644 1775 -115 124 -218 231 -228 239 -55 38
-143 3 -283 -112 -96 -79 -141 -133 -151 -184 -5 -26 0 -37 32 -74 44 -49 394
-428 774 -839 140 -151 368 -396 505 -545 137 -148 308 -333 380 -410 71 -77
265 -286 431 -465 165 -179 500 -541 745 -805 244 -264 532 -574 638 -690 691
-747 785 -846 808 -851 73 -19 263 101 365 229 29 38 38 58 38 88 0 43 12 29
-595 684 -642 691 -1035 1118 -1033 1120 3 2 485 -74 1138 -180 85 -13 227
-36 315 -50 88 -14 201 -32 250 -40 50 -8 160 -26 245 -40 85 -13 211 -33 280
-44 69 -11 312 -50 540 -87 283 -45 430 -64 462 -61 86 10 227 98 357 221 99
95 123 172 68 224 -35 33 -67 41 -342 82 -143 22 -287 44 -320 50 -33 6 -166
26 -295 45 -222 33 -314 47 -525 81 -49 7 -196 30 -325 49 -129 19 -262 39
-295 45 -33 6 -224 35 -425 65 -201 30 -405 62 -455 69 -49 8 -110 18 -134 21
l-43 7 6 67 c4 36 13 127 21 201 8 74 26 248 40 385 14 138 37 358 50 490 14
132 34 330 46 440 11 110 29 281 40 380 40 369 37 440 -22 489 -36 31 -78 33
-134 7z"/>
<path d="M25955 17694 c-16 -2 -72 -9 -123 -15 -430 -50 -876 -280 -1256 -649
-399 -387 -737 -932 -862 -1388 -34 -126 -64 -336 -64 -449 0 -237 65 -494
177 -703 170 -317 442 -587 836 -833 398 -248 936 -449 1317 -492 99 -11 179
33 255 139 83 118 102 178 69 224 -24 35 -59 48 -229 82 -408 81 -696 179
-960 328 -313 176 -566 390 -701 592 -106 160 -154 284 -180 466 -35 243 19
492 173 799 82 164 251 425 274 425 9 0 95 -56 564 -363 88 -58 246 -161 350
-229 105 -69 251 -164 325 -213 74 -48 243 -159 375 -245 132 -86 306 -200
388 -253 507 -333 480 -318 587 -319 107 -1 156 34 278 200 243 333 387 641
442 951 27 156 28 372 0 513 -62 319 -214 589 -463 824 -280 263 -648 467
-1002 554 -184 45 -437 69 -570 54z m475 -508 c385 -89 780 -387 943 -711 113
-227 119 -542 15 -815 -53 -138 -212 -414 -267 -464 -21 -19 5 -34 -396 229
-99 65 -224 146 -277 181 -53 35 -184 120 -290 190 -106 69 -258 169 -338 221
-80 52 -229 149 -331 216 -102 67 -265 174 -362 237 -97 63 -177 119 -177 124
0 20 271 276 357 336 209 146 419 235 638 269 87 14 407 5 485 -13z"/>
<path d="M59863 15820 c-624 -115 -1260 -527 -1635 -1060 -79 -113 -110 -181
-115 -257 -5 -65 -3 -72 41 -159 49 -97 109 -169 151 -180 65 -16 105 16 207
170 148 221 220 310 377 466 175 175 277 249 485 354 616 310 1040 211 1405
-328 69 -103 251 -416 251 -432 0 -5 -159 -89 -353 -188 -427 -216 -493 -253
-672 -372 -785 -519 -1058 -1131 -774 -1733 187 -397 517 -658 909 -721 82
-13 313 -13 405 0 332 47 703 211 950 421 243 205 452 538 549 872 9 31 18 57
21 57 2 0 54 -89 116 -197 62 -109 123 -208 136 -220 16 -17 34 -23 67 -23 89
0 290 97 341 164 48 63 59 36 -265 596 -84 146 -210 364 -280 485 -70 121
-178 308 -240 415 -164 283 -439 761 -542 940 -325 565 -600 820 -993 920
-127 33 -395 38 -542 10z m1550 -2078 c69 -119 173 -300 231 -401 l106 -184
-31 -106 c-69 -241 -167 -465 -275 -634 -57 -88 -189 -225 -289 -300 -135
-100 -371 -202 -525 -227 -145 -23 -309 -7 -431 40 -238 93 -438 341 -496 614
-38 180 21 394 162 575 58 76 205 216 296 283 162 119 208 144 719 404 365
187 375 191 392 172 9 -10 73 -117 141 -236z"/>
<path d="M32500 14339 c-469 -41 -927 -283 -1262 -666 -349 -400 -610 -956
-720 -1538 -19 -104 -22 -153 -23 -365 0 -219 2 -256 23 -350 97 -445 328
-774 734 -1046 105 -71 387 -218 484 -252 33 -12 97 -35 143 -52 210 -77 460
-136 773 -182 128 -19 196 -22 413 -23 l260 0 53 30 c75 41 124 115 158 240
31 111 7 170 -73 185 -23 4 -127 5 -231 2 -496 -13 -932 68 -1328 247 -331
149 -539 319 -684 560 -91 152 -150 376 -150 569 0 112 31 321 69 465 29 114
123 383 139 399 4 4 37 -3 72 -17 101 -38 794 -295 995 -369 99 -37 191 -71
205 -77 14 -6 97 -37 185 -70 159 -58 342 -126 630 -234 83 -31 222 -82 310
-115 88 -32 203 -75 255 -95 128 -49 180 -58 254 -44 113 20 162 73 239 264
84 208 131 368 169 570 32 173 32 484 0 630 -56 255 -147 444 -310 647 -204
252 -517 448 -929 584 -290 95 -566 128 -853 103z m478 -478 c218 -42 441
-133 616 -249 89 -59 225 -188 281 -267 211 -295 242 -680 89 -1107 -56 -158
-63 -171 -82 -163 -22 9 -356 134 -627 235 -115 43 -343 127 -505 188 -300
112 -595 222 -910 338 -96 36 -202 76 -235 88 -33 13 -81 31 -108 41 l-47 18
48 88 c109 203 306 434 470 552 163 117 357 201 547 237 139 25 334 26 463 1z"/>
<path d="M53775 13420 c-208 -22 -509 -105 -700 -194 -514 -240 -832 -628
-945 -1151 -67 -312 -51 -717 45 -1111 187 -774 547 -1371 1010 -1674 170
-111 352 -185 570 -232 97 -20 136 -23 335 -23 191 1 243 4 345 23 335 64 554
145 820 305 268 161 490 369 601 564 37 66 44 86 44 133 0 104 -68 297 -125
353 -68 67 -115 45 -237 -113 -295 -381 -542 -579 -850 -683 -185 -63 -290
-80 -483 -81 -179 -1 -231 6 -370 51 -476 154 -846 646 -1058 1408 -174 626
-137 1139 107 1479 55 76 172 190 251 243 217 146 521 233 813 233 260 0 453
-41 775 -166 165 -64 210 -69 258 -26 27 24 33 37 37 84 2 30 -1 79 -7 108
-18 82 -69 195 -106 233 -86 88 -321 180 -570 223 -108 18 -434 26 -560 14z"/>
<path d="M39445 12579 c-620 -38 -1066 -397 -1159 -934 -78 -445 112 -818 571
-1121 160 -105 250 -159 543 -324 445 -250 597 -378 698 -589 32 -67 36 -84
40 -181 13 -307 -152 -559 -434 -666 -175 -66 -428 -82 -679 -44 -219 34 -350
76 -544 175 -171 87 -295 170 -480 322 -136 111 -201 112 -257 1 -47 -93 -68
-262 -44 -350 37 -132 296 -315 640 -451 304 -121 623 -181 960 -181 421 0
728 92 996 300 212 164 351 405 404 698 82 453 -98 801 -575 1111 -120 78
-211 131 -530 310 -343 192 -508 309 -612 434 -112 136 -156 249 -156 396 1
275 155 499 407 594 221 82 574 70 871 -31 158 -53 376 -176 516 -290 151
-123 170 -129 229 -70 43 43 63 99 81 228 17 117 3 161 -71 234 -107 105 -301
219 -504 295 -274 102 -614 152 -911 134z"/>
<path d="M46460 12239 c-498 -30 -951 -221 -1259 -530 -284 -286 -451 -632
-533 -1104 -20 -116 -22 -164 -22 -450 -1 -353 14 -499 73 -762 177 -782 622
-1274 1321 -1462 372 -100 934 -98 1398 5 374 83 709 202 872 310 74 49 105
148 89 282 -12 100 -38 157 -83 179 -43 20 -74 12 -205 -49 -411 -193 -734
-288 -1084 -319 -195 -17 -544 -6 -672 21 -624 132 -973 556 -1070 1300 -8 63
-16 144 -18 180 l-2 65 230 12 c127 6 421 21 655 33 234 11 603 30 820 40 217
11 584 29 815 40 231 11 440 25 465 31 60 14 141 63 167 102 38 56 45 116 33
282 -56 775 -364 1316 -910 1599 -232 120 -436 176 -718 196 -149 11 -176 11
-362 -1z m377 -470 c395 -53 702 -274 868 -624 58 -122 85 -204 115 -346 19
-94 42 -307 35 -320 -3 -3 -87 -9 -187 -13 -101 -4 -257 -11 -348 -16 -91 -6
-352 -19 -580 -30 -228 -11 -595 -29 -815 -40 -220 -11 -466 -23 -547 -27
l-148 -6 0 29 c0 76 22 265 41 352 64 294 167 491 359 682 201 201 414 311
695 355 99 16 407 19 512 4z"/>
</g>
</svg>
